<mxfile host="app.diagrams.net" agent="Mozilla/5.0 (Windows NT 10.0; Win64; x64) AppleWebKit/537.36 (KHTML, like Gecko) Chrome/138.0.0.0 Safari/537.36" version="28.0.7">
  <diagram name="第 1 页" id="8gcjE4v4uvQbtS_fV8EU">
    <mxGraphModel dx="1921" dy="890" grid="1" gridSize="10" guides="1" tooltips="1" connect="1" arrows="1" fold="1" page="1" pageScale="1" pageWidth="827" pageHeight="1169" math="0" shadow="0">
      <root>
        <mxCell id="0" />
        <mxCell id="1" parent="0" />
        <mxCell id="SwIuSl7DgdtLH89n_A4M-6" style="edgeStyle=none;curved=1;rounded=0;orthogonalLoop=1;jettySize=auto;html=1;exitX=1;exitY=0.5;exitDx=0;exitDy=0;entryX=0;entryY=0.5;entryDx=0;entryDy=0;fontSize=12;startSize=8;endSize=8;" edge="1" parent="1" source="SwIuSl7DgdtLH89n_A4M-1" target="SwIuSl7DgdtLH89n_A4M-4">
          <mxGeometry relative="1" as="geometry" />
        </mxCell>
        <mxCell id="SwIuSl7DgdtLH89n_A4M-1" value="" style="rounded=0;whiteSpace=wrap;html=1;" vertex="1" parent="1">
          <mxGeometry x="20" y="30" width="240" height="100" as="geometry" />
        </mxCell>
        <mxCell id="SwIuSl7DgdtLH89n_A4M-3" value="先確認是顧客還是店員" style="text;strokeColor=none;fillColor=none;html=1;align=center;verticalAlign=middle;whiteSpace=wrap;rounded=0;fontSize=16;" vertex="1" parent="1">
          <mxGeometry x="40" y="40" width="190" height="80" as="geometry" />
        </mxCell>
        <mxCell id="SwIuSl7DgdtLH89n_A4M-4" value="" style="rhombus;whiteSpace=wrap;html=1;" vertex="1" parent="1">
          <mxGeometry x="350" y="30" width="100" height="100" as="geometry" />
        </mxCell>
        <mxCell id="SwIuSl7DgdtLH89n_A4M-7" value="" style="rounded=0;whiteSpace=wrap;html=1;" vertex="1" parent="1">
          <mxGeometry x="520" y="10" width="280" height="130" as="geometry" />
        </mxCell>
        <mxCell id="SwIuSl7DgdtLH89n_A4M-9" value="" style="endArrow=classic;html=1;rounded=0;fontSize=12;startSize=8;endSize=8;curved=1;exitX=1;exitY=0.5;exitDx=0;exitDy=0;" edge="1" parent="1" source="SwIuSl7DgdtLH89n_A4M-4">
          <mxGeometry width="50" height="50" relative="1" as="geometry">
            <mxPoint x="480" y="80" as="sourcePoint" />
            <mxPoint x="520" y="80" as="targetPoint" />
          </mxGeometry>
        </mxCell>
        <mxCell id="SwIuSl7DgdtLH89n_A4M-11" value="顧客頁面可以直接預約&lt;div&gt;也可以選擇登入&lt;/div&gt;&lt;div&gt;也可以選擇註冊&lt;/div&gt;" style="text;strokeColor=none;fillColor=none;html=1;align=center;verticalAlign=middle;whiteSpace=wrap;rounded=0;fontSize=16;" vertex="1" parent="1">
          <mxGeometry x="540" y="25" width="240" height="100" as="geometry" />
        </mxCell>
        <mxCell id="SwIuSl7DgdtLH89n_A4M-12" value="" style="endArrow=classic;html=1;rounded=0;fontSize=12;startSize=8;endSize=8;curved=1;exitX=0.5;exitY=1;exitDx=0;exitDy=0;" edge="1" parent="1" source="SwIuSl7DgdtLH89n_A4M-4" target="SwIuSl7DgdtLH89n_A4M-13">
          <mxGeometry width="50" height="50" relative="1" as="geometry">
            <mxPoint x="399.5" y="140" as="sourcePoint" />
            <mxPoint x="399.5" y="220" as="targetPoint" />
          </mxGeometry>
        </mxCell>
        <mxCell id="SwIuSl7DgdtLH89n_A4M-13" value="" style="rounded=0;whiteSpace=wrap;html=1;" vertex="1" parent="1">
          <mxGeometry x="300" y="190" width="200" height="90" as="geometry" />
        </mxCell>
        <mxCell id="SwIuSl7DgdtLH89n_A4M-14" value="店員進入系統登入&lt;div&gt;或是老闆登入&lt;/div&gt;" style="text;strokeColor=none;fillColor=none;html=1;align=center;verticalAlign=middle;whiteSpace=wrap;rounded=0;fontSize=16;" vertex="1" parent="1">
          <mxGeometry x="310" y="210" width="180" height="50" as="geometry" />
        </mxCell>
        <mxCell id="SwIuSl7DgdtLH89n_A4M-15" value="" style="rhombus;whiteSpace=wrap;html=1;" vertex="1" parent="1">
          <mxGeometry x="360" y="320" width="80" height="80" as="geometry" />
        </mxCell>
        <mxCell id="SwIuSl7DgdtLH89n_A4M-16" value="" style="endArrow=classic;html=1;rounded=0;fontSize=12;startSize=8;endSize=8;curved=1;entryX=0.5;entryY=0;entryDx=0;entryDy=0;" edge="1" parent="1" target="SwIuSl7DgdtLH89n_A4M-15">
          <mxGeometry width="50" height="50" relative="1" as="geometry">
            <mxPoint x="400" y="280" as="sourcePoint" />
            <mxPoint x="450" y="230" as="targetPoint" />
          </mxGeometry>
        </mxCell>
        <mxCell id="SwIuSl7DgdtLH89n_A4M-17" value="" style="rounded=0;whiteSpace=wrap;html=1;" vertex="1" parent="1">
          <mxGeometry x="310" y="440" width="180" height="110" as="geometry" />
        </mxCell>
        <mxCell id="SwIuSl7DgdtLH89n_A4M-18" value="" style="endArrow=classic;html=1;rounded=0;fontSize=12;startSize=8;endSize=8;curved=1;" edge="1" parent="1" target="SwIuSl7DgdtLH89n_A4M-17">
          <mxGeometry width="50" height="50" relative="1" as="geometry">
            <mxPoint x="400" y="400" as="sourcePoint" />
            <mxPoint x="450" y="350" as="targetPoint" />
          </mxGeometry>
        </mxCell>
        <mxCell id="SwIuSl7DgdtLH89n_A4M-23" value="店員可以選擇上班時間或休假時間&lt;div&gt;以及會員的預定&lt;/div&gt;&lt;div&gt;還有展示接下來的工作時間表&lt;/div&gt;" style="text;strokeColor=none;fillColor=none;html=1;align=center;verticalAlign=middle;whiteSpace=wrap;rounded=0;fontSize=16;" vertex="1" parent="1">
          <mxGeometry x="320" y="460" width="160" height="80" as="geometry" />
        </mxCell>
        <mxCell id="SwIuSl7DgdtLH89n_A4M-27" value="" style="endArrow=classic;html=1;rounded=0;fontSize=12;startSize=8;endSize=8;curved=1;exitX=0;exitY=0.5;exitDx=0;exitDy=0;exitPerimeter=0;entryX=1;entryY=0.5;entryDx=0;entryDy=0;" edge="1" parent="1" source="SwIuSl7DgdtLH89n_A4M-15" target="SwIuSl7DgdtLH89n_A4M-30">
          <mxGeometry width="50" height="50" relative="1" as="geometry">
            <mxPoint x="360" y="355" as="sourcePoint" />
            <mxPoint x="320" y="355" as="targetPoint" />
          </mxGeometry>
        </mxCell>
        <mxCell id="SwIuSl7DgdtLH89n_A4M-30" value="" style="rounded=0;whiteSpace=wrap;html=1;" vertex="1" parent="1">
          <mxGeometry x="160" y="330" width="160" height="60" as="geometry" />
        </mxCell>
        <mxCell id="SwIuSl7DgdtLH89n_A4M-29" value="老闆可以看見並修改店裡所有狀況" style="text;strokeColor=none;fillColor=none;html=1;align=center;verticalAlign=middle;whiteSpace=wrap;rounded=0;fontSize=16;" vertex="1" parent="1">
          <mxGeometry x="180" y="345" width="130" height="30" as="geometry" />
        </mxCell>
        <mxCell id="SwIuSl7DgdtLH89n_A4M-38" value="" style="edgeStyle=none;curved=1;rounded=0;orthogonalLoop=1;jettySize=auto;html=1;fontSize=12;startSize=8;endSize=8;" edge="1" parent="1" source="SwIuSl7DgdtLH89n_A4M-31">
          <mxGeometry relative="1" as="geometry">
            <mxPoint x="860" y="305" as="targetPoint" />
          </mxGeometry>
        </mxCell>
        <mxCell id="SwIuSl7DgdtLH89n_A4M-31" value="" style="rhombus;whiteSpace=wrap;html=1;" vertex="1" parent="1">
          <mxGeometry x="820" y="150" width="80" height="80" as="geometry" />
        </mxCell>
        <mxCell id="SwIuSl7DgdtLH89n_A4M-32" value="" style="endArrow=classic;html=1;rounded=0;fontSize=12;startSize=8;endSize=8;curved=1;entryX=0.5;entryY=0;entryDx=0;entryDy=0;" edge="1" parent="1" target="SwIuSl7DgdtLH89n_A4M-31">
          <mxGeometry width="50" height="50" relative="1" as="geometry">
            <mxPoint x="860" y="80" as="sourcePoint" />
            <mxPoint x="860" y="105" as="targetPoint" />
          </mxGeometry>
        </mxCell>
        <mxCell id="SwIuSl7DgdtLH89n_A4M-33" value="" style="endArrow=classic;html=1;rounded=0;fontSize=12;startSize=8;endSize=8;curved=1;entryX=0;entryY=0.5;entryDx=0;entryDy=0;exitX=1;exitY=0.5;exitDx=0;exitDy=0;" edge="1" parent="1" source="SwIuSl7DgdtLH89n_A4M-31" target="SwIuSl7DgdtLH89n_A4M-35">
          <mxGeometry width="50" height="50" relative="1" as="geometry">
            <mxPoint x="980" y="145" as="sourcePoint" />
            <mxPoint x="980" y="235" as="targetPoint" />
          </mxGeometry>
        </mxCell>
        <mxCell id="SwIuSl7DgdtLH89n_A4M-35" value="" style="rounded=0;whiteSpace=wrap;html=1;" vertex="1" parent="1">
          <mxGeometry x="1020" y="140" width="230" height="100" as="geometry" />
        </mxCell>
        <mxCell id="SwIuSl7DgdtLH89n_A4M-40" value="" style="shape=parallelogram;perimeter=parallelogramPerimeter;whiteSpace=wrap;html=1;fixedSize=1;" vertex="1" parent="1">
          <mxGeometry x="760" y="305" width="200" height="70" as="geometry" />
        </mxCell>
        <mxCell id="SwIuSl7DgdtLH89n_A4M-41" value="會員註冊" style="text;strokeColor=none;fillColor=none;html=1;align=center;verticalAlign=middle;whiteSpace=wrap;rounded=0;fontSize=16;" vertex="1" parent="1">
          <mxGeometry x="790" y="325" width="130" height="30" as="geometry" />
        </mxCell>
        <mxCell id="SwIuSl7DgdtLH89n_A4M-42" value="" style="shape=parallelogram;perimeter=parallelogramPerimeter;whiteSpace=wrap;html=1;fixedSize=1;" vertex="1" parent="1">
          <mxGeometry x="600" y="160" width="120" height="60" as="geometry" />
        </mxCell>
        <mxCell id="SwIuSl7DgdtLH89n_A4M-43" value="" style="endArrow=none;html=1;rounded=0;fontSize=12;startSize=8;endSize=8;curved=1;" edge="1" parent="1">
          <mxGeometry width="50" height="50" relative="1" as="geometry">
            <mxPoint x="800" y="80" as="sourcePoint" />
            <mxPoint x="860" y="80" as="targetPoint" />
          </mxGeometry>
        </mxCell>
        <mxCell id="SwIuSl7DgdtLH89n_A4M-45" value="訂單輸入" style="text;strokeColor=none;fillColor=none;html=1;align=center;verticalAlign=middle;whiteSpace=wrap;rounded=0;fontSize=16;" vertex="1" parent="1">
          <mxGeometry x="610" y="175" width="90" height="30" as="geometry" />
        </mxCell>
        <mxCell id="SwIuSl7DgdtLH89n_A4M-46" value="" style="endArrow=classic;html=1;rounded=0;fontSize=12;startSize=8;endSize=8;curved=1;entryX=1;entryY=0.5;entryDx=0;entryDy=0;" edge="1" parent="1" target="SwIuSl7DgdtLH89n_A4M-42">
          <mxGeometry width="50" height="50" relative="1" as="geometry">
            <mxPoint x="820" y="189.5" as="sourcePoint" />
            <mxPoint x="753" y="189.5" as="targetPoint" />
          </mxGeometry>
        </mxCell>
        <mxCell id="SwIuSl7DgdtLH89n_A4M-47" value="店員" style="text;strokeColor=none;fillColor=none;html=1;align=center;verticalAlign=middle;whiteSpace=wrap;rounded=0;fontSize=16;" vertex="1" parent="1">
          <mxGeometry x="400" y="400" width="60" height="30" as="geometry" />
        </mxCell>
        <mxCell id="SwIuSl7DgdtLH89n_A4M-48" value="老闆" style="text;strokeColor=none;fillColor=none;html=1;align=center;verticalAlign=middle;whiteSpace=wrap;rounded=0;fontSize=16;" vertex="1" parent="1">
          <mxGeometry x="320" y="320" width="60" height="30" as="geometry" />
        </mxCell>
        <mxCell id="SwIuSl7DgdtLH89n_A4M-50" value="顧客" style="text;strokeColor=none;fillColor=none;html=1;align=center;verticalAlign=middle;whiteSpace=wrap;rounded=0;fontSize=16;" vertex="1" parent="1">
          <mxGeometry x="450" y="40" width="60" height="30" as="geometry" />
        </mxCell>
        <mxCell id="SwIuSl7DgdtLH89n_A4M-51" value="後台" style="text;strokeColor=none;fillColor=none;html=1;align=center;verticalAlign=middle;whiteSpace=wrap;rounded=0;fontSize=16;" vertex="1" parent="1">
          <mxGeometry x="400" y="140" width="60" height="30" as="geometry" />
        </mxCell>
        <mxCell id="SwIuSl7DgdtLH89n_A4M-52" value="" style="rhombus;whiteSpace=wrap;html=1;" vertex="1" parent="1">
          <mxGeometry x="830" y="545" width="120" height="110" as="geometry" />
        </mxCell>
        <mxCell id="SwIuSl7DgdtLH89n_A4M-53" value="" style="endArrow=none;html=1;rounded=0;fontSize=12;startSize=8;endSize=8;curved=1;entryX=0;entryY=0.5;entryDx=0;entryDy=0;" edge="1" parent="1" target="SwIuSl7DgdtLH89n_A4M-40">
          <mxGeometry width="50" height="50" relative="1" as="geometry">
            <mxPoint x="550" y="340" as="sourcePoint" />
            <mxPoint x="740" y="325" as="targetPoint" />
          </mxGeometry>
        </mxCell>
        <mxCell id="SwIuSl7DgdtLH89n_A4M-55" value="" style="endArrow=classic;html=1;rounded=0;fontSize=12;startSize=8;endSize=8;curved=1;entryX=0.125;entryY=1.023;entryDx=0;entryDy=0;entryPerimeter=0;" edge="1" parent="1" target="SwIuSl7DgdtLH89n_A4M-7">
          <mxGeometry width="50" height="50" relative="1" as="geometry">
            <mxPoint x="550" y="340" as="sourcePoint" />
            <mxPoint x="530" y="230" as="targetPoint" />
          </mxGeometry>
        </mxCell>
        <mxCell id="SwIuSl7DgdtLH89n_A4M-56" value="會員登入" style="text;strokeColor=none;fillColor=none;html=1;align=center;verticalAlign=middle;whiteSpace=wrap;rounded=0;fontSize=16;" vertex="1" parent="1">
          <mxGeometry x="1055" y="160" width="160" height="60" as="geometry" />
        </mxCell>
        <mxCell id="SwIuSl7DgdtLH89n_A4M-57" value="" style="rounded=0;whiteSpace=wrap;html=1;" vertex="1" parent="1">
          <mxGeometry x="1030" y="297.5" width="200" height="85" as="geometry" />
        </mxCell>
        <mxCell id="SwIuSl7DgdtLH89n_A4M-58" value="登入享受滿額9折優惠" style="text;strokeColor=none;fillColor=none;html=1;align=center;verticalAlign=middle;whiteSpace=wrap;rounded=0;fontSize=16;" vertex="1" parent="1">
          <mxGeometry x="1047.5" y="317.5" width="165" height="45" as="geometry" />
        </mxCell>
        <mxCell id="SwIuSl7DgdtLH89n_A4M-63" value="" style="endArrow=classic;html=1;rounded=0;fontSize=12;startSize=8;endSize=8;curved=1;entryX=0.5;entryY=0;entryDx=0;entryDy=0;exitX=0.47;exitY=0.99;exitDx=0;exitDy=0;exitPerimeter=0;" edge="1" parent="1" source="SwIuSl7DgdtLH89n_A4M-35" target="SwIuSl7DgdtLH89n_A4M-57">
          <mxGeometry width="50" height="50" relative="1" as="geometry">
            <mxPoint x="1134.5" y="240" as="sourcePoint" />
            <mxPoint x="1134.5" y="320" as="targetPoint" />
          </mxGeometry>
        </mxCell>
        <mxCell id="SwIuSl7DgdtLH89n_A4M-64" value="" style="shape=parallelogram;perimeter=parallelogramPerimeter;whiteSpace=wrap;html=1;fixedSize=1;" vertex="1" parent="1">
          <mxGeometry x="1025" y="430" width="220" height="60" as="geometry" />
        </mxCell>
        <mxCell id="SwIuSl7DgdtLH89n_A4M-65" value="訂單輸入，金額9折優惠" style="text;strokeColor=none;fillColor=none;html=1;align=center;verticalAlign=middle;whiteSpace=wrap;rounded=0;fontSize=16;" vertex="1" parent="1">
          <mxGeometry x="1055" y="445" width="175" height="30" as="geometry" />
        </mxCell>
        <mxCell id="SwIuSl7DgdtLH89n_A4M-66" value="" style="endArrow=classic;html=1;rounded=0;fontSize=12;startSize=8;endSize=8;curved=1;entryX=0.436;entryY=0.083;entryDx=0;entryDy=0;entryPerimeter=0;" edge="1" parent="1" target="SwIuSl7DgdtLH89n_A4M-64">
          <mxGeometry width="50" height="50" relative="1" as="geometry">
            <mxPoint x="1121" y="380" as="sourcePoint" />
            <mxPoint x="1122" y="440" as="targetPoint" />
          </mxGeometry>
        </mxCell>
        <mxCell id="SwIuSl7DgdtLH89n_A4M-67" value="" style="endArrow=none;html=1;rounded=0;fontSize=12;startSize=8;endSize=8;curved=1;entryX=0.408;entryY=0.967;entryDx=0;entryDy=0;entryPerimeter=0;" edge="1" parent="1" target="SwIuSl7DgdtLH89n_A4M-42">
          <mxGeometry width="50" height="50" relative="1" as="geometry">
            <mxPoint x="649" y="600" as="sourcePoint" />
            <mxPoint x="940" y="410" as="targetPoint" />
          </mxGeometry>
        </mxCell>
        <mxCell id="SwIuSl7DgdtLH89n_A4M-68" value="" style="endArrow=classic;html=1;rounded=0;fontSize=12;startSize=8;endSize=8;curved=1;" edge="1" parent="1">
          <mxGeometry width="50" height="50" relative="1" as="geometry">
            <mxPoint x="650" y="600" as="sourcePoint" />
            <mxPoint x="830" y="600" as="targetPoint" />
          </mxGeometry>
        </mxCell>
        <mxCell id="SwIuSl7DgdtLH89n_A4M-69" value="" style="endArrow=none;html=1;rounded=0;fontSize=12;startSize=8;endSize=8;curved=1;" edge="1" parent="1">
          <mxGeometry width="50" height="50" relative="1" as="geometry">
            <mxPoint x="1120" y="600" as="sourcePoint" />
            <mxPoint x="1120" y="490" as="targetPoint" />
          </mxGeometry>
        </mxCell>
        <mxCell id="SwIuSl7DgdtLH89n_A4M-70" value="" style="endArrow=classic;html=1;rounded=0;fontSize=12;startSize=8;endSize=8;curved=1;" edge="1" parent="1">
          <mxGeometry width="50" height="50" relative="1" as="geometry">
            <mxPoint x="1120" y="600" as="sourcePoint" />
            <mxPoint x="950" y="600" as="targetPoint" />
          </mxGeometry>
        </mxCell>
        <mxCell id="SwIuSl7DgdtLH89n_A4M-71" value="" style="endArrow=classic;html=1;rounded=0;fontSize=12;startSize=8;endSize=8;curved=1;entryX=0.45;entryY=1.033;entryDx=0;entryDy=0;entryPerimeter=0;" edge="1" parent="1" target="SwIuSl7DgdtLH89n_A4M-30">
          <mxGeometry width="50" height="50" relative="1" as="geometry">
            <mxPoint x="232" y="510" as="sourcePoint" />
            <mxPoint x="430" y="410" as="targetPoint" />
          </mxGeometry>
        </mxCell>
        <mxCell id="SwIuSl7DgdtLH89n_A4M-72" value="" style="endArrow=none;html=1;rounded=0;fontSize=12;startSize=8;endSize=8;curved=1;entryX=-0.017;entryY=0.573;entryDx=0;entryDy=0;entryPerimeter=0;" edge="1" parent="1" target="SwIuSl7DgdtLH89n_A4M-17">
          <mxGeometry width="50" height="50" relative="1" as="geometry">
            <mxPoint x="230" y="503" as="sourcePoint" />
            <mxPoint x="430" y="410" as="targetPoint" />
          </mxGeometry>
        </mxCell>
        <mxCell id="SwIuSl7DgdtLH89n_A4M-73" value="確認有無錯誤訂單" style="text;strokeColor=none;fillColor=none;html=1;align=center;verticalAlign=middle;whiteSpace=wrap;rounded=0;fontSize=16;" vertex="1" parent="1">
          <mxGeometry x="850" y="585" width="80" height="30" as="geometry" />
        </mxCell>
        <mxCell id="SwIuSl7DgdtLH89n_A4M-74" value="" style="endArrow=classic;html=1;rounded=0;fontSize=12;startSize=8;endSize=8;curved=1;" edge="1" parent="1" target="SwIuSl7DgdtLH89n_A4M-76">
          <mxGeometry width="50" height="50" relative="1" as="geometry">
            <mxPoint x="889.66" y="655" as="sourcePoint" />
            <mxPoint x="890" y="740" as="targetPoint" />
          </mxGeometry>
        </mxCell>
        <mxCell id="SwIuSl7DgdtLH89n_A4M-76" value="" style="rounded=0;whiteSpace=wrap;html=1;" vertex="1" parent="1">
          <mxGeometry x="830" y="710" width="120" height="60" as="geometry" />
        </mxCell>
        <mxCell id="SwIuSl7DgdtLH89n_A4M-77" value="正確" style="text;strokeColor=none;fillColor=none;html=1;align=center;verticalAlign=middle;whiteSpace=wrap;rounded=0;fontSize=16;" vertex="1" parent="1">
          <mxGeometry x="900" y="670" width="60" height="30" as="geometry" />
        </mxCell>
        <mxCell id="SwIuSl7DgdtLH89n_A4M-78" value="錯誤：&lt;div&gt;&lt;div&gt;回歸原本畫面並提示錯誤&lt;/div&gt;&lt;/div&gt;" style="text;strokeColor=none;fillColor=none;html=1;align=center;verticalAlign=middle;whiteSpace=wrap;rounded=0;fontSize=16;" vertex="1" parent="1">
          <mxGeometry x="830" y="500" width="125" height="30" as="geometry" />
        </mxCell>
        <mxCell id="SwIuSl7DgdtLH89n_A4M-79" value="完成訂單" style="text;strokeColor=none;fillColor=none;html=1;align=center;verticalAlign=middle;whiteSpace=wrap;rounded=0;fontSize=16;" vertex="1" parent="1">
          <mxGeometry x="856.25" y="725" width="67.5" height="30" as="geometry" />
        </mxCell>
        <mxCell id="SwIuSl7DgdtLH89n_A4M-80" value="" style="endArrow=classic;html=1;rounded=0;fontSize=12;startSize=8;endSize=8;curved=1;entryX=0.5;entryY=1;entryDx=0;entryDy=0;" edge="1" parent="1" target="SwIuSl7DgdtLH89n_A4M-17">
          <mxGeometry width="50" height="50" relative="1" as="geometry">
            <mxPoint x="400" y="740" as="sourcePoint" />
            <mxPoint x="870" y="510" as="targetPoint" />
          </mxGeometry>
        </mxCell>
        <mxCell id="SwIuSl7DgdtLH89n_A4M-81" value="" style="endArrow=none;html=1;rounded=0;fontSize=12;startSize=8;endSize=8;curved=1;entryX=0;entryY=0.5;entryDx=0;entryDy=0;" edge="1" parent="1" target="SwIuSl7DgdtLH89n_A4M-76">
          <mxGeometry width="50" height="50" relative="1" as="geometry">
            <mxPoint x="400" y="740" as="sourcePoint" />
            <mxPoint x="870" y="510" as="targetPoint" />
          </mxGeometry>
        </mxCell>
      </root>
    </mxGraphModel>
  </diagram>
</mxfile>
